<svg xmlns="http://www.w3.org/2000/svg" width="100" height="100" viewBox="0 0 100 100" role="img" aria-label="Bella Tarantino brandmark">
<title>Bella Tarantino</title>
<g><path d="M50.000 4.000 A46 46 0 0 1 51.806 4.035 L51.453 13.029 A37 37 0 0 0 50.000 13.000 Z" fill="rgb(242,93,84)"></path><path d="M51.204 4.016 A46 46 0 0 1 53.009 4.098 L52.420 13.079 A37 37 0 0 0 50.969 13.013 Z" fill="rgb(242,95,83)"></path><path d="M52.407 4.063 A46 46 0 0 1 54.209 4.193 L53.386 13.155 A37 37 0 0 0 51.936 13.051 Z" fill="rgb(242,97,82)"></path><path d="M53.609 4.142 A46 46 0 0 1 55.407 4.319 L54.349 13.256 A37 37 0 0 0 52.903 13.114 Z" fill="rgb(242,98,81)"></path><path d="M54.808 4.252 A46 46 0 0 1 56.601 4.476 L55.309 13.383 A37 37 0 0 0 53.868 13.203 Z" fill="rgb(242,100,80)"></path><path d="M56.004 4.394 A46 46 0 0 1 57.790 4.664 L56.266 13.534 A37 37 0 0 0 54.829 13.317 Z" fill="rgb(242,102,80)"></path><path d="M57.196 4.566 A46 46 0 0 1 58.974 4.884 L57.218 13.711 A37 37 0 0 0 55.788 13.456 Z" fill="rgb(242,104,79)"></path><path d="M58.383 4.770 A46 46 0 0 1 60.152 5.134 L58.166 13.912 A37 37 0 0 0 56.743 13.620 Z" fill="rgb(242,106,78)"></path><path d="M59.564 5.005 A46 46 0 0 1 61.323 5.415 L59.108 14.138 A37 37 0 0 0 57.693 13.809 Z" fill="rgb(242,108,77)"></path><path d="M60.738 5.271 A46 46 0 0 1 62.486 5.727 L60.043 14.389 A37 37 0 0 0 58.637 14.022 Z" fill="rgb(242,109,76)"></path><path d="M61.906 5.567 A46 46 0 0 1 63.641 6.069 L60.972 14.664 A37 37 0 0 0 59.576 14.261 Z" fill="rgb(242,111,76)"></path><path d="M63.065 5.894 A46 46 0 0 1 64.786 6.441 L61.893 14.964 A37 37 0 0 0 60.509 14.524 Z" fill="rgb(242,113,75)"></path><path d="M64.215 6.251 A46 46 0 0 1 65.921 6.843 L62.806 15.287 A37 37 0 0 0 61.434 14.811 Z" fill="rgb(242,115,74)"></path><path d="M65.355 6.638 A46 46 0 0 1 67.046 7.275 L63.711 15.634 A37 37 0 0 0 62.351 15.122 Z" fill="rgb(242,117,73)"></path><path d="M66.485 7.055 A46 46 0 0 1 68.158 7.736 L64.606 16.005 A37 37 0 0 0 63.260 15.458 Z" fill="rgb(242,119,72)"></path><path d="M67.603 7.502 A46 46 0 0 1 69.258 8.225 L65.490 16.399 A37 37 0 0 0 64.159 15.816 Z" fill="rgb(242,120,72)"></path><path d="M68.710 7.977 A46 46 0 0 1 70.345 8.744 L66.365 16.816 A37 37 0 0 0 65.049 16.199 Z" fill="rgb(242,122,71)"></path><path d="M69.804 8.481 A46 46 0 0 1 71.418 9.291 L67.228 17.255 A37 37 0 0 0 65.929 16.604 Z" fill="rgb(242,124,70)"></path><path d="M70.884 9.014 A46 46 0 0 1 72.477 9.865 L68.079 17.718 A37 37 0 0 0 66.798 17.033 Z" fill="rgb(242,126,69)"></path><path d="M71.949 9.574 A46 46 0 0 1 73.519 10.467 L68.918 18.202 A37 37 0 0 0 67.655 17.484 Z" fill="rgb(242,128,68)"></path><path d="M73.000 10.163 A46 46 0 0 1 74.546 11.097 L69.744 18.708 A37 37 0 0 0 68.500 17.957 Z" fill="rgb(242,130,68)"></path><path d="M74.035 10.779 A46 46 0 0 1 75.556 11.752 L70.556 19.236 A37 37 0 0 0 69.332 18.452 Z" fill="rgb(242,131,67)"></path><path d="M75.053 11.421 A46 46 0 0 1 76.549 12.434 L71.354 19.784 A37 37 0 0 0 70.152 18.969 Z" fill="rgb(242,133,66)"></path><path d="M76.055 12.090 A46 46 0 0 1 77.523 13.142 L72.138 20.354 A37 37 0 0 0 70.957 19.507 Z" fill="rgb(242,135,65)"></path><path d="M77.038 12.785 A46 46 0 0 1 78.478 13.875 L72.906 20.943 A37 37 0 0 0 71.748 20.066 Z" fill="rgb(242,137,64)"></path><path d="M78.003 13.506 A46 46 0 0 1 79.414 14.633 L73.659 21.553 A37 37 0 0 0 72.524 20.646 Z" fill="rgb(242,139,64)"></path><path d="M78.949 14.251 A46 46 0 0 1 80.330 15.415 L74.396 22.182 A37 37 0 0 0 73.285 21.246 Z" fill="rgb(242,141,63)"></path><path d="M79.875 15.021 A46 46 0 0 1 81.225 16.221 L75.116 22.830 A37 37 0 0 0 74.030 21.865 Z" fill="rgb(242,142,62)"></path><path d="M80.780 15.815 A46 46 0 0 1 82.098 17.050 L75.818 23.497 A37 37 0 0 0 74.758 22.504 Z" fill="rgb(242,144,61)"></path><path d="M81.664 16.633 A46 46 0 0 1 82.950 17.902 L76.503 24.182 A37 37 0 0 0 75.469 23.161 Z" fill="rgb(242,146,60)"></path><path d="M82.527 17.473 A46 46 0 0 1 83.779 18.775 L77.170 24.884 A37 37 0 0 0 76.163 23.837 Z" fill="rgb(242,148,60)"></path><path d="M83.367 18.336 A46 46 0 0 1 84.585 19.670 L77.818 25.604 A37 37 0 0 0 76.839 24.531 Z" fill="rgb(242,149,61)"></path><path d="M84.185 19.220 A46 46 0 0 1 85.367 20.586 L78.447 26.341 A37 37 0 0 0 77.496 25.242 Z" fill="rgb(242,151,62)"></path><path d="M84.979 20.125 A46 46 0 0 1 86.125 21.522 L79.057 27.094 A37 37 0 0 0 78.135 25.970 Z" fill="rgb(242,152,62)"></path><path d="M85.749 21.051 A46 46 0 0 1 86.858 22.477 L79.646 27.862 A37 37 0 0 0 78.754 26.715 Z" fill="rgb(242,154,63)"></path><path d="M86.494 21.997 A46 46 0 0 1 87.566 23.451 L80.216 28.646 A37 37 0 0 0 79.354 27.476 Z" fill="rgb(242,155,63)"></path><path d="M87.215 22.962 A46 46 0 0 1 88.248 24.444 L80.764 29.444 A37 37 0 0 0 79.934 28.252 Z" fill="rgb(242,157,64)"></path><path d="M87.910 23.945 A46 46 0 0 1 88.903 25.454 L81.292 30.256 A37 37 0 0 0 80.493 29.043 Z" fill="rgb(242,159,65)"></path><path d="M88.579 24.947 A46 46 0 0 1 89.533 26.481 L81.798 31.082 A37 37 0 0 0 81.031 29.848 Z" fill="rgb(242,160,65)"></path><path d="M89.221 25.965 A46 46 0 0 1 90.135 27.523 L82.282 31.921 A37 37 0 0 0 81.548 30.668 Z" fill="rgb(242,162,66)"></path><path d="M89.837 27.000 A46 46 0 0 1 90.709 28.582 L82.745 32.772 A37 37 0 0 0 82.043 31.500 Z" fill="rgb(242,163,66)"></path><path d="M90.426 28.051 A46 46 0 0 1 91.256 29.655 L83.184 33.635 A37 37 0 0 0 82.516 32.345 Z" fill="rgb(242,165,67)"></path><path d="M90.986 29.116 A46 46 0 0 1 91.775 30.742 L83.601 34.510 A37 37 0 0 0 82.967 33.202 Z" fill="rgb(242,166,68)"></path><path d="M91.519 30.196 A46 46 0 0 1 92.264 31.842 L83.995 35.394 A37 37 0 0 0 83.396 34.071 Z" fill="rgb(242,168,68)"></path><path d="M92.023 31.290 A46 46 0 0 1 92.725 32.954 L84.366 36.289 A37 37 0 0 0 83.801 34.951 Z" fill="rgb(242,169,69)"></path><path d="M92.498 32.397 A46 46 0 0 1 93.157 34.079 L84.713 37.194 A37 37 0 0 0 84.184 35.841 Z" fill="rgb(242,171,69)"></path><path d="M92.945 33.515 A46 46 0 0 1 93.559 35.214 L85.036 38.107 A37 37 0 0 0 84.542 36.740 Z" fill="rgb(242,172,70)"></path><path d="M93.362 34.645 A46 46 0 0 1 93.931 36.359 L85.336 39.028 A37 37 0 0 0 84.878 37.649 Z" fill="rgb(242,174,71)"></path><path d="M93.749 35.785 A46 46 0 0 1 94.273 37.514 L85.611 39.957 A37 37 0 0 0 85.189 38.566 Z" fill="rgb(242,175,71)"></path><path d="M94.106 36.935 A46 46 0 0 1 94.585 38.677 L85.862 40.892 A37 37 0 0 0 85.476 39.491 Z" fill="rgb(242,177,72)"></path><path d="M94.433 38.094 A46 46 0 0 1 94.866 39.848 L86.088 41.834 A37 37 0 0 0 85.739 40.424 Z" fill="rgb(242,178,72)"></path><path d="M94.729 39.262 A46 46 0 0 1 95.116 41.026 L86.289 42.782 A37 37 0 0 0 85.978 41.363 Z" fill="rgb(242,180,73)"></path><path d="M94.995 40.436 A46 46 0 0 1 95.336 42.210 L86.466 43.734 A37 37 0 0 0 86.191 42.307 Z" fill="rgb(242,182,74)"></path><path d="M95.230 41.617 A46 46 0 0 1 95.524 43.399 L86.617 44.691 A37 37 0 0 0 86.380 43.257 Z" fill="rgb(242,183,74)"></path><path d="M95.434 42.804 A46 46 0 0 1 95.681 44.593 L86.744 45.651 A37 37 0 0 0 86.544 44.212 Z" fill="rgb(242,185,75)"></path><path d="M95.606 43.996 A46 46 0 0 1 95.807 45.791 L86.845 46.614 A37 37 0 0 0 86.683 45.171 Z" fill="rgb(242,186,75)"></path><path d="M95.748 45.192 A46 46 0 0 1 95.902 46.991 L86.921 47.580 A37 37 0 0 0 86.797 46.132 Z" fill="rgb(242,188,76)"></path><path d="M95.858 46.391 A46 46 0 0 1 95.965 48.194 L86.971 48.547 A37 37 0 0 0 86.886 47.097 Z" fill="rgb(242,189,77)"></path><path d="M95.937 47.593 A46 46 0 0 1 95.996 49.398 L86.997 49.516 A37 37 0 0 0 86.949 48.064 Z" fill="rgb(242,191,77)"></path><path d="M95.984 48.796 A46 46 0 0 1 95.996 50.602 L86.997 50.484 A37 37 0 0 0 86.987 49.031 Z" fill="rgb(242,192,78)"></path><path d="M96.000 50.000 A46 46 0 0 1 95.965 51.806 L86.971 51.453 A37 37 0 0 0 87.000 50.000 Z" fill="rgb(239,193,79)"></path><path d="M95.984 51.204 A46 46 0 0 1 95.902 53.009 L86.921 52.420 A37 37 0 0 0 86.987 50.969 Z" fill="rgb(233,193,80)"></path><path d="M95.937 52.407 A46 46 0 0 1 95.807 54.209 L86.845 53.386 A37 37 0 0 0 86.949 51.936 Z" fill="rgb(227,192,82)"></path><path d="M95.858 53.609 A46 46 0 0 1 95.681 55.407 L86.744 54.349 A37 37 0 0 0 86.886 52.903 Z" fill="rgb(222,192,84)"></path><path d="M95.748 54.808 A46 46 0 0 1 95.524 56.601 L86.617 55.309 A37 37 0 0 0 86.797 53.868 Z" fill="rgb(216,192,85)"></path><path d="M95.606 56.004 A46 46 0 0 1 95.336 57.790 L86.466 56.266 A37 37 0 0 0 86.683 54.829 Z" fill="rgb(210,192,87)"></path><path d="M95.434 57.196 A46 46 0 0 1 95.116 58.974 L86.289 57.218 A37 37 0 0 0 86.544 55.788 Z" fill="rgb(204,191,89)"></path><path d="M95.230 58.383 A46 46 0 0 1 94.866 60.152 L86.088 58.166 A37 37 0 0 0 86.380 56.743 Z" fill="rgb(198,191,90)"></path><path d="M94.995 59.564 A46 46 0 0 1 94.585 61.323 L85.862 59.108 A37 37 0 0 0 86.191 57.693 Z" fill="rgb(192,191,92)"></path><path d="M94.729 60.738 A46 46 0 0 1 94.273 62.486 L85.611 60.043 A37 37 0 0 0 85.978 58.637 Z" fill="rgb(187,190,94)"></path><path d="M94.433 61.906 A46 46 0 0 1 93.931 63.641 L85.336 60.972 A37 37 0 0 0 85.739 59.576 Z" fill="rgb(181,190,95)"></path><path d="M94.106 63.065 A46 46 0 0 1 93.559 64.786 L85.036 61.893 A37 37 0 0 0 85.476 60.509 Z" fill="rgb(175,190,97)"></path><path d="M93.749 64.215 A46 46 0 0 1 93.157 65.921 L84.713 62.806 A37 37 0 0 0 85.189 61.434 Z" fill="rgb(169,190,98)"></path><path d="M93.362 65.355 A46 46 0 0 1 92.725 67.046 L84.366 63.711 A37 37 0 0 0 84.878 62.351 Z" fill="rgb(163,189,100)"></path><path d="M92.945 66.485 A46 46 0 0 1 92.264 68.158 L83.995 64.606 A37 37 0 0 0 84.542 63.260 Z" fill="rgb(157,189,102)"></path><path d="M92.498 67.603 A46 46 0 0 1 91.775 69.258 L83.601 65.490 A37 37 0 0 0 84.184 64.159 Z" fill="rgb(152,189,103)"></path><path d="M92.023 68.710 A46 46 0 0 1 91.256 70.345 L83.184 66.365 A37 37 0 0 0 83.801 65.049 Z" fill="rgb(146,189,105)"></path><path d="M91.519 69.804 A46 46 0 0 1 90.709 71.418 L82.745 67.228 A37 37 0 0 0 83.396 65.929 Z" fill="rgb(140,188,107)"></path><path d="M90.986 70.884 A46 46 0 0 1 90.135 72.477 L82.282 68.079 A37 37 0 0 0 82.967 66.798 Z" fill="rgb(134,188,108)"></path><path d="M90.426 71.949 A46 46 0 0 1 89.533 73.519 L81.798 68.918 A37 37 0 0 0 82.516 67.655 Z" fill="rgb(128,188,110)"></path><path d="M89.837 73.000 A46 46 0 0 1 88.903 74.546 L81.292 69.744 A37 37 0 0 0 82.043 68.500 Z" fill="rgb(122,188,111)"></path><path d="M89.221 74.035 A46 46 0 0 1 88.248 75.556 L80.764 70.556 A37 37 0 0 0 81.548 69.332 Z" fill="rgb(117,187,113)"></path><path d="M88.579 75.053 A46 46 0 0 1 87.566 76.549 L80.216 71.354 A37 37 0 0 0 81.031 70.152 Z" fill="rgb(111,187,115)"></path><path d="M87.910 76.055 A46 46 0 0 1 86.858 77.523 L79.646 72.138 A37 37 0 0 0 80.493 70.957 Z" fill="rgb(105,187,116)"></path><path d="M87.215 77.038 A46 46 0 0 1 86.125 78.478 L79.057 72.906 A37 37 0 0 0 79.934 71.748 Z" fill="rgb(99,186,118)"></path><path d="M86.494 78.003 A46 46 0 0 1 85.367 79.414 L78.447 73.659 A37 37 0 0 0 79.354 72.524 Z" fill="rgb(93,186,120)"></path><path d="M85.749 78.949 A46 46 0 0 1 84.585 80.330 L77.818 74.396 A37 37 0 0 0 78.754 73.285 Z" fill="rgb(87,186,121)"></path><path d="M84.979 79.875 A46 46 0 0 1 83.779 81.225 L77.170 75.116 A37 37 0 0 0 78.135 74.030 Z" fill="rgb(82,186,123)"></path><path d="M84.185 80.780 A46 46 0 0 1 82.950 82.098 L76.503 75.818 A37 37 0 0 0 77.496 74.758 Z" fill="rgb(76,185,125)"></path><path d="M83.367 81.664 A46 46 0 0 1 82.098 82.950 L75.818 76.503 A37 37 0 0 0 76.839 75.469 Z" fill="rgb(70,185,126)"></path><path d="M82.527 82.527 A46 46 0 0 1 81.225 83.779 L75.116 77.170 A37 37 0 0 0 76.163 76.163 Z" fill="rgb(67,185,128)"></path><path d="M81.664 83.367 A46 46 0 0 1 80.330 84.585 L74.396 77.818 A37 37 0 0 0 75.469 76.839 Z" fill="rgb(66,185,130)"></path><path d="M80.780 84.185 A46 46 0 0 1 79.414 85.367 L73.659 78.447 A37 37 0 0 0 74.758 77.496 Z" fill="rgb(65,185,133)"></path><path d="M79.875 84.979 A46 46 0 0 1 78.478 86.125 L72.906 79.057 A37 37 0 0 0 74.030 78.135 Z" fill="rgb(64,185,135)"></path><path d="M78.949 85.749 A46 46 0 0 1 77.523 86.858 L72.138 79.646 A37 37 0 0 0 73.285 78.754 Z" fill="rgb(63,185,137)"></path><path d="M78.003 86.494 A46 46 0 0 1 76.549 87.566 L71.354 80.216 A37 37 0 0 0 72.524 79.354 Z" fill="rgb(63,184,140)"></path><path d="M77.038 87.215 A46 46 0 0 1 75.556 88.248 L70.556 80.764 A37 37 0 0 0 71.748 79.934 Z" fill="rgb(62,184,142)"></path><path d="M76.055 87.910 A46 46 0 0 1 74.546 88.903 L69.744 81.292 A37 37 0 0 0 70.957 80.493 Z" fill="rgb(61,184,144)"></path><path d="M75.053 88.579 A46 46 0 0 1 73.519 89.533 L68.918 81.798 A37 37 0 0 0 70.152 81.031 Z" fill="rgb(60,184,147)"></path><path d="M74.035 89.221 A46 46 0 0 1 72.477 90.135 L68.079 82.282 A37 37 0 0 0 69.332 81.548 Z" fill="rgb(59,184,149)"></path><path d="M73.000 89.837 A46 46 0 0 1 71.418 90.709 L67.228 82.745 A37 37 0 0 0 68.500 82.043 Z" fill="rgb(59,184,151)"></path><path d="M71.949 90.426 A46 46 0 0 1 70.345 91.256 L66.365 83.184 A37 37 0 0 0 67.655 82.516 Z" fill="rgb(58,184,153)"></path><path d="M70.884 90.986 A46 46 0 0 1 69.258 91.775 L65.490 83.601 A37 37 0 0 0 66.798 82.967 Z" fill="rgb(57,184,156)"></path><path d="M69.804 91.519 A46 46 0 0 1 68.158 92.264 L64.606 83.995 A37 37 0 0 0 65.929 83.396 Z" fill="rgb(56,184,158)"></path><path d="M68.710 92.023 A46 46 0 0 1 67.046 92.725 L63.711 84.366 A37 37 0 0 0 65.049 83.801 Z" fill="rgb(55,184,160)"></path><path d="M67.603 92.498 A46 46 0 0 1 65.921 93.157 L62.806 84.713 A37 37 0 0 0 64.159 84.184 Z" fill="rgb(55,183,163)"></path><path d="M66.485 92.945 A46 46 0 0 1 64.786 93.559 L61.893 85.036 A37 37 0 0 0 63.260 84.542 Z" fill="rgb(54,183,165)"></path><path d="M65.355 93.362 A46 46 0 0 1 63.641 93.931 L60.972 85.336 A37 37 0 0 0 62.351 84.878 Z" fill="rgb(53,183,167)"></path><path d="M64.215 93.749 A46 46 0 0 1 62.486 94.273 L60.043 85.611 A37 37 0 0 0 61.434 85.189 Z" fill="rgb(52,183,170)"></path><path d="M63.065 94.106 A46 46 0 0 1 61.323 94.585 L59.108 85.862 A37 37 0 0 0 60.509 85.476 Z" fill="rgb(51,183,172)"></path><path d="M61.906 94.433 A46 46 0 0 1 60.152 94.866 L58.166 86.088 A37 37 0 0 0 59.576 85.739 Z" fill="rgb(51,183,174)"></path><path d="M60.738 94.729 A46 46 0 0 1 58.974 95.116 L57.218 86.289 A37 37 0 0 0 58.637 85.978 Z" fill="rgb(50,183,176)"></path><path d="M59.564 94.995 A46 46 0 0 1 57.790 95.336 L56.266 86.466 A37 37 0 0 0 57.693 86.191 Z" fill="rgb(49,183,179)"></path><path d="M58.383 95.230 A46 46 0 0 1 56.601 95.524 L55.309 86.617 A37 37 0 0 0 56.743 86.380 Z" fill="rgb(48,183,181)"></path><path d="M57.196 95.434 A46 46 0 0 1 55.407 95.681 L54.349 86.744 A37 37 0 0 0 55.788 86.544 Z" fill="rgb(47,183,183)"></path><path d="M56.004 95.606 A46 46 0 0 1 54.209 95.807 L53.386 86.845 A37 37 0 0 0 54.829 86.683 Z" fill="rgb(47,182,186)"></path><path d="M54.808 95.748 A46 46 0 0 1 53.009 95.902 L52.420 86.921 A37 37 0 0 0 53.868 86.797 Z" fill="rgb(46,182,188)"></path><path d="M53.609 95.858 A46 46 0 0 1 51.806 95.965 L51.453 86.971 A37 37 0 0 0 52.903 86.886 Z" fill="rgb(45,182,190)"></path><path d="M52.407 95.937 A46 46 0 0 1 50.602 95.996 L50.484 86.997 A37 37 0 0 0 51.936 86.949 Z" fill="rgb(44,182,193)"></path><path d="M51.204 95.984 A46 46 0 0 1 49.398 95.996 L49.516 86.997 A37 37 0 0 0 50.969 86.987 Z" fill="rgb(43,182,195)"></path><path d="M50.000 96.000 A46 46 0 0 1 48.194 95.965 L48.547 86.971 A37 37 0 0 0 50.000 87.000 Z" fill="rgb(44,181,197)"></path><path d="M48.796 95.984 A46 46 0 0 1 46.991 95.902 L47.580 86.921 A37 37 0 0 0 49.031 86.987 Z" fill="rgb(45,179,198)"></path><path d="M47.593 95.937 A46 46 0 0 1 45.791 95.807 L46.614 86.845 A37 37 0 0 0 48.064 86.949 Z" fill="rgb(46,177,200)"></path><path d="M46.391 95.858 A46 46 0 0 1 44.593 95.681 L45.651 86.744 A37 37 0 0 0 47.097 86.886 Z" fill="rgb(47,175,202)"></path><path d="M45.192 95.748 A46 46 0 0 1 43.399 95.524 L44.691 86.617 A37 37 0 0 0 46.132 86.797 Z" fill="rgb(48,173,203)"></path><path d="M43.996 95.606 A46 46 0 0 1 42.210 95.336 L43.734 86.466 A37 37 0 0 0 45.171 86.683 Z" fill="rgb(49,171,205)"></path><path d="M42.804 95.434 A46 46 0 0 1 41.026 95.116 L42.782 86.289 A37 37 0 0 0 44.212 86.544 Z" fill="rgb(50,169,207)"></path><path d="M41.617 95.230 A46 46 0 0 1 39.848 94.866 L41.834 86.088 A37 37 0 0 0 43.257 86.380 Z" fill="rgb(51,168,208)"></path><path d="M40.436 94.995 A46 46 0 0 1 38.677 94.585 L40.892 85.862 A37 37 0 0 0 42.307 86.191 Z" fill="rgb(52,166,210)"></path><path d="M39.262 94.729 A46 46 0 0 1 37.514 94.273 L39.957 85.611 A37 37 0 0 0 41.363 85.978 Z" fill="rgb(53,164,212)"></path><path d="M38.094 94.433 A46 46 0 0 1 36.359 93.931 L39.028 85.336 A37 37 0 0 0 40.424 85.739 Z" fill="rgb(54,162,213)"></path><path d="M36.935 94.106 A46 46 0 0 1 35.214 93.559 L38.107 85.036 A37 37 0 0 0 39.491 85.476 Z" fill="rgb(55,160,215)"></path><path d="M35.785 93.749 A46 46 0 0 1 34.079 93.157 L37.194 84.713 A37 37 0 0 0 38.566 85.189 Z" fill="rgb(56,158,216)"></path><path d="M34.645 93.362 A46 46 0 0 1 32.954 92.725 L36.289 84.366 A37 37 0 0 0 37.649 84.878 Z" fill="rgb(57,156,218)"></path><path d="M33.515 92.945 A46 46 0 0 1 31.842 92.264 L35.394 83.995 A37 37 0 0 0 36.740 84.542 Z" fill="rgb(58,154,220)"></path><path d="M32.397 92.498 A46 46 0 0 1 30.742 91.775 L34.510 83.601 A37 37 0 0 0 35.841 84.184 Z" fill="rgb(59,152,221)"></path><path d="M31.290 92.023 A46 46 0 0 1 29.655 91.256 L33.635 83.184 A37 37 0 0 0 34.951 83.801 Z" fill="rgb(60,150,223)"></path><path d="M30.196 91.519 A46 46 0 0 1 28.582 90.709 L32.772 82.745 A37 37 0 0 0 34.071 83.396 Z" fill="rgb(61,148,225)"></path><path d="M29.116 90.986 A46 46 0 0 1 27.523 90.135 L31.921 82.282 A37 37 0 0 0 33.202 82.967 Z" fill="rgb(62,146,226)"></path><path d="M28.051 90.426 A46 46 0 0 1 26.481 89.533 L31.082 81.798 A37 37 0 0 0 32.345 82.516 Z" fill="rgb(63,144,228)"></path><path d="M27.000 89.837 A46 46 0 0 1 25.454 88.903 L30.256 81.292 A37 37 0 0 0 31.500 82.043 Z" fill="rgb(64,142,229)"></path><path d="M25.965 89.221 A46 46 0 0 1 24.444 88.248 L29.444 80.764 A37 37 0 0 0 30.668 81.548 Z" fill="rgb(65,140,231)"></path><path d="M24.947 88.579 A46 46 0 0 1 23.451 87.566 L28.646 80.216 A37 37 0 0 0 29.848 81.031 Z" fill="rgb(66,139,233)"></path><path d="M23.945 87.910 A46 46 0 0 1 22.477 86.858 L27.862 79.646 A37 37 0 0 0 29.043 80.493 Z" fill="rgb(67,137,234)"></path><path d="M22.962 87.215 A46 46 0 0 1 21.522 86.125 L27.094 79.057 A37 37 0 0 0 28.252 79.934 Z" fill="rgb(68,135,236)"></path><path d="M21.997 86.494 A46 46 0 0 1 20.586 85.367 L26.341 78.447 A37 37 0 0 0 27.476 79.354 Z" fill="rgb(69,133,238)"></path><path d="M21.051 85.749 A46 46 0 0 1 19.670 84.585 L25.604 77.818 A37 37 0 0 0 26.715 78.754 Z" fill="rgb(70,131,239)"></path><path d="M20.125 84.979 A46 46 0 0 1 18.775 83.779 L24.884 77.170 A37 37 0 0 0 25.970 78.135 Z" fill="rgb(71,129,241)"></path><path d="M19.220 84.185 A46 46 0 0 1 17.902 82.950 L24.182 76.503 A37 37 0 0 0 25.242 77.496 Z" fill="rgb(72,127,243)"></path><path d="M18.336 83.367 A46 46 0 0 1 17.050 82.098 L23.497 75.818 A37 37 0 0 0 24.531 76.839 Z" fill="rgb(73,125,244)"></path><path d="M17.473 82.527 A46 46 0 0 1 16.221 81.225 L22.830 75.116 A37 37 0 0 0 23.837 76.163 Z" fill="rgb(75,124,245)"></path><path d="M16.633 81.664 A46 46 0 0 1 15.415 80.330 L22.182 74.396 A37 37 0 0 0 23.161 75.469 Z" fill="rgb(76,123,245)"></path><path d="M15.815 80.780 A46 46 0 0 1 14.633 79.414 L21.553 73.659 A37 37 0 0 0 22.504 74.758 Z" fill="rgb(78,123,245)"></path><path d="M15.021 79.875 A46 46 0 0 1 13.875 78.478 L20.943 72.906 A37 37 0 0 0 21.865 74.030 Z" fill="rgb(80,122,244)"></path><path d="M14.251 78.949 A46 46 0 0 1 13.142 77.523 L20.354 72.138 A37 37 0 0 0 21.246 73.285 Z" fill="rgb(81,122,244)"></path><path d="M13.506 78.003 A46 46 0 0 1 12.434 76.549 L19.784 71.354 A37 37 0 0 0 20.646 72.524 Z" fill="rgb(83,121,244)"></path><path d="M12.785 77.038 A46 46 0 0 1 11.752 75.556 L19.236 70.556 A37 37 0 0 0 20.066 71.748 Z" fill="rgb(85,121,244)"></path><path d="M12.090 76.055 A46 46 0 0 1 11.097 74.546 L18.708 69.744 A37 37 0 0 0 19.507 70.957 Z" fill="rgb(86,121,244)"></path><path d="M11.421 75.053 A46 46 0 0 1 10.467 73.519 L18.202 68.918 A37 37 0 0 0 18.969 70.152 Z" fill="rgb(88,120,244)"></path><path d="M10.779 74.035 A46 46 0 0 1 9.865 72.477 L17.718 68.079 A37 37 0 0 0 18.452 69.332 Z" fill="rgb(90,120,243)"></path><path d="M10.163 73.000 A46 46 0 0 1 9.291 71.418 L17.255 67.228 A37 37 0 0 0 17.957 68.500 Z" fill="rgb(91,119,243)"></path><path d="M9.574 71.949 A46 46 0 0 1 8.744 70.345 L16.816 66.365 A37 37 0 0 0 17.484 67.655 Z" fill="rgb(93,119,243)"></path><path d="M9.014 70.884 A46 46 0 0 1 8.225 69.258 L16.399 65.490 A37 37 0 0 0 17.033 66.798 Z" fill="rgb(94,118,243)"></path><path d="M8.481 69.804 A46 46 0 0 1 7.736 68.158 L16.005 64.606 A37 37 0 0 0 16.604 65.929 Z" fill="rgb(96,118,243)"></path><path d="M7.977 68.710 A46 46 0 0 1 7.275 67.046 L15.634 63.711 A37 37 0 0 0 16.199 65.049 Z" fill="rgb(98,117,243)"></path><path d="M7.502 67.603 A46 46 0 0 1 6.843 65.921 L15.287 62.806 A37 37 0 0 0 15.816 64.159 Z" fill="rgb(99,117,242)"></path><path d="M7.055 66.485 A46 46 0 0 1 6.441 64.786 L14.964 61.893 A37 37 0 0 0 15.458 63.260 Z" fill="rgb(101,116,242)"></path><path d="M6.638 65.355 A46 46 0 0 1 6.069 63.641 L14.664 60.972 A37 37 0 0 0 15.122 62.351 Z" fill="rgb(103,116,242)"></path><path d="M6.251 64.215 A46 46 0 0 1 5.727 62.486 L14.389 60.043 A37 37 0 0 0 14.811 61.434 Z" fill="rgb(104,115,242)"></path><path d="M5.894 63.065 A46 46 0 0 1 5.415 61.323 L14.138 59.108 A37 37 0 0 0 14.524 60.509 Z" fill="rgb(106,115,242)"></path><path d="M5.567 61.906 A46 46 0 0 1 5.134 60.152 L13.912 58.166 A37 37 0 0 0 14.261 59.576 Z" fill="rgb(107,114,242)"></path><path d="M5.271 60.738 A46 46 0 0 1 4.884 58.974 L13.711 57.218 A37 37 0 0 0 14.022 58.637 Z" fill="rgb(109,114,241)"></path><path d="M5.005 59.564 A46 46 0 0 1 4.664 57.790 L13.534 56.266 A37 37 0 0 0 13.809 57.693 Z" fill="rgb(111,114,241)"></path><path d="M4.770 58.383 A46 46 0 0 1 4.476 56.601 L13.383 55.309 A37 37 0 0 0 13.620 56.743 Z" fill="rgb(112,113,241)"></path><path d="M4.566 57.196 A46 46 0 0 1 4.319 55.407 L13.256 54.349 A37 37 0 0 0 13.456 55.788 Z" fill="rgb(114,113,241)"></path><path d="M4.394 56.004 A46 46 0 0 1 4.193 54.209 L13.155 53.386 A37 37 0 0 0 13.317 54.829 Z" fill="rgb(116,112,241)"></path><path d="M4.252 54.808 A46 46 0 0 1 4.098 53.009 L13.079 52.420 A37 37 0 0 0 13.203 53.868 Z" fill="rgb(117,112,241)"></path><path d="M4.142 53.609 A46 46 0 0 1 4.035 51.806 L13.029 51.453 A37 37 0 0 0 13.114 52.903 Z" fill="rgb(119,111,240)"></path><path d="M4.063 52.407 A46 46 0 0 1 4.004 50.602 L13.003 50.484 A37 37 0 0 0 13.051 51.936 Z" fill="rgb(121,111,240)"></path><path d="M4.016 51.204 A46 46 0 0 1 4.004 49.398 L13.003 49.516 A37 37 0 0 0 13.013 50.969 Z" fill="rgb(122,110,240)"></path><path d="M4.000 50.000 A46 46 0 0 1 4.035 48.194 L13.029 48.547 A37 37 0 0 0 13.000 50.000 Z" fill="rgb(125,110,239)"></path><path d="M4.016 48.796 A46 46 0 0 1 4.098 46.991 L13.079 47.580 A37 37 0 0 0 13.013 49.031 Z" fill="rgb(129,110,236)"></path><path d="M4.063 47.593 A46 46 0 0 1 4.193 45.791 L13.155 46.614 A37 37 0 0 0 13.051 48.064 Z" fill="rgb(132,110,234)"></path><path d="M4.142 46.391 A46 46 0 0 1 4.319 44.593 L13.256 45.651 A37 37 0 0 0 13.114 47.097 Z" fill="rgb(136,110,232)"></path><path d="M4.252 45.192 A46 46 0 0 1 4.476 43.399 L13.383 44.691 A37 37 0 0 0 13.203 46.132 Z" fill="rgb(140,110,229)"></path><path d="M4.394 43.996 A46 46 0 0 1 4.664 42.210 L13.534 43.734 A37 37 0 0 0 13.317 45.171 Z" fill="rgb(144,110,227)"></path><path d="M4.566 42.804 A46 46 0 0 1 4.884 41.026 L13.711 42.782 A37 37 0 0 0 13.456 44.212 Z" fill="rgb(147,110,225)"></path><path d="M4.770 41.617 A46 46 0 0 1 5.134 39.848 L13.912 41.834 A37 37 0 0 0 13.620 43.257 Z" fill="rgb(151,110,222)"></path><path d="M5.005 40.436 A46 46 0 0 1 5.415 38.677 L14.138 40.892 A37 37 0 0 0 13.809 42.307 Z" fill="rgb(155,110,220)"></path><path d="M5.271 39.262 A46 46 0 0 1 5.727 37.514 L14.389 39.957 A37 37 0 0 0 14.022 41.363 Z" fill="rgb(159,110,218)"></path><path d="M5.567 38.094 A46 46 0 0 1 6.069 36.359 L14.664 39.028 A37 37 0 0 0 14.261 40.424 Z" fill="rgb(163,110,215)"></path><path d="M5.894 36.935 A46 46 0 0 1 6.441 35.214 L14.964 38.107 A37 37 0 0 0 14.524 39.491 Z" fill="rgb(166,110,213)"></path><path d="M6.251 35.785 A46 46 0 0 1 6.843 34.079 L15.287 37.194 A37 37 0 0 0 14.811 38.566 Z" fill="rgb(170,110,210)"></path><path d="M6.638 34.645 A46 46 0 0 1 7.275 32.954 L15.634 36.289 A37 37 0 0 0 15.122 37.649 Z" fill="rgb(174,110,208)"></path><path d="M7.055 33.515 A46 46 0 0 1 7.736 31.842 L16.005 35.394 A37 37 0 0 0 15.458 36.740 Z" fill="rgb(178,110,206)"></path><path d="M7.502 32.397 A46 46 0 0 1 8.225 30.742 L16.399 34.510 A37 37 0 0 0 15.816 35.841 Z" fill="rgb(181,111,203)"></path><path d="M7.977 31.290 A46 46 0 0 1 8.744 29.655 L16.816 33.635 A37 37 0 0 0 16.199 34.951 Z" fill="rgb(185,111,201)"></path><path d="M8.481 30.196 A46 46 0 0 1 9.291 28.582 L17.255 32.772 A37 37 0 0 0 16.604 34.071 Z" fill="rgb(189,111,199)"></path><path d="M9.014 29.116 A46 46 0 0 1 9.865 27.523 L17.718 31.921 A37 37 0 0 0 17.033 33.202 Z" fill="rgb(193,111,196)"></path><path d="M9.574 28.051 A46 46 0 0 1 10.467 26.481 L18.202 31.082 A37 37 0 0 0 17.484 32.345 Z" fill="rgb(196,111,194)"></path><path d="M10.163 27.000 A46 46 0 0 1 11.097 25.454 L18.708 30.256 A37 37 0 0 0 17.957 31.500 Z" fill="rgb(200,111,191)"></path><path d="M10.779 25.965 A46 46 0 0 1 11.752 24.444 L19.236 29.444 A37 37 0 0 0 18.452 30.668 Z" fill="rgb(204,111,189)"></path><path d="M11.421 24.947 A46 46 0 0 1 12.434 23.451 L19.784 28.646 A37 37 0 0 0 18.969 29.848 Z" fill="rgb(208,111,187)"></path><path d="M12.090 23.945 A46 46 0 0 1 13.142 22.477 L20.354 27.862 A37 37 0 0 0 19.507 29.043 Z" fill="rgb(212,111,184)"></path><path d="M12.785 22.962 A46 46 0 0 1 13.875 21.522 L20.943 27.094 A37 37 0 0 0 20.066 28.252 Z" fill="rgb(215,111,182)"></path><path d="M13.506 21.997 A46 46 0 0 1 14.633 20.586 L21.553 26.341 A37 37 0 0 0 20.646 27.476 Z" fill="rgb(219,111,180)"></path><path d="M14.251 21.051 A46 46 0 0 1 15.415 19.670 L22.182 25.604 A37 37 0 0 0 21.246 26.715 Z" fill="rgb(223,111,177)"></path><path d="M15.021 20.125 A46 46 0 0 1 16.221 18.775 L22.830 24.884 A37 37 0 0 0 21.865 25.970 Z" fill="rgb(227,111,175)"></path><path d="M15.815 19.220 A46 46 0 0 1 17.050 17.902 L23.497 24.182 A37 37 0 0 0 22.504 25.242 Z" fill="rgb(230,111,173)"></path><path d="M16.633 18.336 A46 46 0 0 1 17.902 17.050 L24.182 23.497 A37 37 0 0 0 23.161 24.531 Z" fill="rgb(234,111,170)"></path><path d="M17.473 17.473 A46 46 0 0 1 18.775 16.221 L24.884 22.830 A37 37 0 0 0 23.837 23.837 Z" fill="rgb(236,111,168)"></path><path d="M18.336 16.633 A46 46 0 0 1 19.670 15.415 L25.604 22.182 A37 37 0 0 0 24.531 23.161 Z" fill="rgb(236,110,165)"></path><path d="M19.220 15.815 A46 46 0 0 1 20.586 14.633 L26.341 21.553 A37 37 0 0 0 25.242 22.504 Z" fill="rgb(237,109,162)"></path><path d="M20.125 15.021 A46 46 0 0 1 21.522 13.875 L27.094 20.943 A37 37 0 0 0 25.970 21.865 Z" fill="rgb(237,109,159)"></path><path d="M21.051 14.251 A46 46 0 0 1 22.477 13.142 L27.862 20.354 A37 37 0 0 0 26.715 21.246 Z" fill="rgb(237,108,156)"></path><path d="M21.997 13.506 A46 46 0 0 1 23.451 12.434 L28.646 19.784 A37 37 0 0 0 27.476 20.646 Z" fill="rgb(237,108,153)"></path><path d="M22.962 12.785 A46 46 0 0 1 24.444 11.752 L29.444 19.236 A37 37 0 0 0 28.252 20.066 Z" fill="rgb(237,107,151)"></path><path d="M23.945 12.090 A46 46 0 0 1 25.454 11.097 L30.256 18.708 A37 37 0 0 0 29.043 19.507 Z" fill="rgb(238,106,148)"></path><path d="M24.947 11.421 A46 46 0 0 1 26.481 10.467 L31.082 18.202 A37 37 0 0 0 29.848 18.969 Z" fill="rgb(238,106,145)"></path><path d="M25.965 10.779 A46 46 0 0 1 27.523 9.865 L31.921 17.718 A37 37 0 0 0 30.668 18.452 Z" fill="rgb(238,105,142)"></path><path d="M27.000 10.163 A46 46 0 0 1 28.582 9.291 L32.772 17.255 A37 37 0 0 0 31.500 17.957 Z" fill="rgb(238,104,139)"></path><path d="M28.051 9.574 A46 46 0 0 1 29.655 8.744 L33.635 16.816 A37 37 0 0 0 32.345 17.484 Z" fill="rgb(238,104,136)"></path><path d="M29.116 9.014 A46 46 0 0 1 30.742 8.225 L34.510 16.399 A37 37 0 0 0 33.202 17.033 Z" fill="rgb(239,103,134)"></path><path d="M30.196 8.481 A46 46 0 0 1 31.842 7.736 L35.394 16.005 A37 37 0 0 0 34.071 16.604 Z" fill="rgb(239,102,131)"></path><path d="M31.290 7.977 A46 46 0 0 1 32.954 7.275 L36.289 15.634 A37 37 0 0 0 34.951 16.199 Z" fill="rgb(239,102,128)"></path><path d="M32.397 7.502 A46 46 0 0 1 34.079 6.843 L37.194 15.287 A37 37 0 0 0 35.841 15.816 Z" fill="rgb(239,101,125)"></path><path d="M33.515 7.055 A46 46 0 0 1 35.214 6.441 L38.107 14.964 A37 37 0 0 0 36.740 15.458 Z" fill="rgb(239,101,122)"></path><path d="M34.645 6.638 A46 46 0 0 1 36.359 6.069 L39.028 14.664 A37 37 0 0 0 37.649 15.122 Z" fill="rgb(240,100,119)"></path><path d="M35.785 6.251 A46 46 0 0 1 37.514 5.727 L39.957 14.389 A37 37 0 0 0 38.566 14.811 Z" fill="rgb(240,99,117)"></path><path d="M36.935 5.894 A46 46 0 0 1 38.677 5.415 L40.892 14.138 A37 37 0 0 0 39.491 14.524 Z" fill="rgb(240,99,114)"></path><path d="M38.094 5.567 A46 46 0 0 1 39.848 5.134 L41.834 13.912 A37 37 0 0 0 40.424 14.261 Z" fill="rgb(240,98,111)"></path><path d="M39.262 5.271 A46 46 0 0 1 41.026 4.884 L42.782 13.711 A37 37 0 0 0 41.363 14.022 Z" fill="rgb(240,97,108)"></path><path d="M40.436 5.005 A46 46 0 0 1 42.210 4.664 L43.734 13.534 A37 37 0 0 0 42.307 13.809 Z" fill="rgb(241,97,105)"></path><path d="M41.617 4.770 A46 46 0 0 1 43.399 4.476 L44.691 13.383 A37 37 0 0 0 43.257 13.620 Z" fill="rgb(241,96,102)"></path><path d="M42.804 4.566 A46 46 0 0 1 44.593 4.319 L45.651 13.256 A37 37 0 0 0 44.212 13.456 Z" fill="rgb(241,95,100)"></path><path d="M43.996 4.394 A46 46 0 0 1 45.791 4.193 L46.614 13.155 A37 37 0 0 0 45.171 13.317 Z" fill="rgb(241,95,97)"></path><path d="M45.192 4.252 A46 46 0 0 1 46.991 4.098 L47.580 13.079 A37 37 0 0 0 46.132 13.203 Z" fill="rgb(241,94,94)"></path><path d="M46.391 4.142 A46 46 0 0 1 48.194 4.035 L48.547 13.029 A37 37 0 0 0 47.097 13.114 Z" fill="rgb(242,94,91)"></path><path d="M47.593 4.063 A46 46 0 0 1 49.398 4.004 L49.516 13.003 A37 37 0 0 0 48.064 13.051 Z" fill="rgb(242,93,88)"></path><path d="M48.796 4.016 A46 46 0 0 1 50.602 4.004 L50.484 13.003 A37 37 0 0 0 49.031 13.013 Z" fill="rgb(242,92,85)"></path></g>
</svg>